<svg xmlns="http://www.w3.org/2000/svg" width="20" height="20" viewBox="0 0 20 20" fill="#ffb800">
<g id="notification_pencil">
<path fill-rule="evenodd" clip-rule="evenodd" d="M15.7265 2.39812L17.6238 4.24922C17.8667 4.49973 18.0018 4.83615 18.0001 5.18591C17.9984 5.53567 17.8599 5.87074 17.6146 6.11883L16.5462 7.19246C16.5115 7.11003 16.4579 7.03707 16.3897 6.97958L12.8623 3.40697L12.7794 3.35144L13.8109 2.41664C14.0571 2.16966 14.3846 2.02155 14.7319 2.00014C15.0705 1.99533 15.3989 2.11741 15.6528 2.34259L15.7265 2.39812ZM11.5977 4.73391L15.125 8.32503C15.1975 8.39302 15.2864 8.44087 15.3829 8.46386L6.64309 17.1745L1.90002 18.1L2.82101 13.3334L11.5424 4.6506C11.5582 4.68001 11.5768 4.7079 11.5977 4.73391Z" stroke="none"></path>
</g>
</svg>
